<svg width="40" height="40" viewBox="0 0 40 40" fill="none" xmlns="http://www.w3.org/2000/svg">
<rect width="40" height="40" rx="4" fill="#F6F5F4"/>
<path d="M27.184 11.619C27.1558 11.4497 27.0917 11.2886 26.9959 11.1462C26.9001 11.0039 26.7749 10.8838 26.6288 10.7939C26.4827 10.7041 26.319 10.6466 26.1488 10.6254C25.9785 10.6042 25.8057 10.6197 25.642 10.671L17.242 13.2954C16.9978 13.3716 16.7843 13.5239 16.6327 13.7301C16.4812 13.9363 16.3995 14.1855 16.3996 14.4414V24.1998C15.859 23.7943 15.1972 23.5832 14.5217 23.6008C13.8461 23.6183 13.1962 23.8635 12.6774 24.2965C12.1585 24.7295 11.8011 25.3251 11.6629 25.9866C11.5248 26.6481 11.6141 27.3369 11.9163 27.9414C12.2186 28.5459 12.716 29.0306 13.3281 29.317C13.9403 29.6034 14.6311 29.6748 15.2889 29.5195C15.9466 29.3642 16.5326 28.9914 16.952 28.4615C17.3714 27.9316 17.5996 27.2756 17.5996 26.5998V18.0414L25.9996 15.4158V18.8274C26.4112 18.8634 26.8132 18.939 27.1996 19.0482V11.8158C27.1996 11.7486 27.1936 11.6838 27.184 11.619ZM30.7996 25.3998C30.7996 26.8319 30.2307 28.2054 29.218 29.2181C28.2053 30.2308 26.8318 30.7998 25.3996 30.7998C23.9674 30.7998 22.5939 30.2308 21.5812 29.2181C20.5685 28.2054 19.9996 26.8319 19.9996 25.3998C19.9996 23.9676 20.5685 22.5941 21.5812 21.5814C22.5939 20.5687 23.9674 19.9998 25.3996 19.9998C26.8318 19.9998 28.2053 20.5687 29.218 21.5814C30.2307 22.5941 30.7996 23.9676 30.7996 25.3998ZM28.084 24.8778L24.4912 22.8978C24.3999 22.8473 24.297 22.8214 24.1927 22.8229C24.0884 22.8243 23.9862 22.8529 23.8963 22.9058C23.8064 22.9587 23.7319 23.0342 23.6801 23.1248C23.6282 23.2153 23.6009 23.3178 23.6008 23.4222V27.3822C23.6007 27.4866 23.6279 27.5892 23.6796 27.68C23.7314 27.7707 23.8059 27.8463 23.8958 27.8994C23.9857 27.9525 24.088 27.9812 24.1924 27.9827C24.2968 27.9841 24.3998 27.9583 24.4912 27.9078L28.084 25.9278C28.1778 25.8759 28.256 25.7998 28.3104 25.7075C28.3648 25.6152 28.3935 25.5099 28.3935 25.4028C28.3935 25.2956 28.3648 25.1904 28.3104 25.098C28.256 25.0057 28.1778 24.9296 28.084 24.8778Z" fill="#BABABA"/>
</svg>
